<svg width="138" height="51" viewBox="0 0 138 51" fill="none" xmlns="http://www.w3.org/2000/svg">
<path d="M1.46392 12.7459L60.3814 6.0297L96.1031 2L102.134 3.79098C110.794 4.38797 128.67 5.8506 130.897 6.92519C133.124 7.99978 134.299 9.76091 134.608 10.5071V13.1936L136 43.1925L135.536 44.088L135.072 44.9835L133.68 45.4312H129.969H125.33H121.155H116.052C116.206 45.4312 116.33 45.6999 115.588 46.7745C114.845 47.8491 113.732 49.0132 113.268 49.4609H111.412L110.021 49.0132L109.093 48.1177L107.701 46.7745L107.237 45.4312H106.309V46.3267L84.0412 45.4312V46.7745V47.67L81.7216 47.2222C81.7216 47.5207 81.6289 48.1177 81.2577 48.1177C80.8866 48.1177 80.4845 48.7147 80.3299 49.0132C80.4845 49.1624 80.5155 49.4609 79.4021 49.4609C78.2887 49.4609 77.0825 49.1624 76.6186 49.0132L75.6907 48.1177L74.7629 47.2222H36.2577L35.3299 47.67L34.4021 48.1177H33.4742H32.5464L31.6186 47.67L31.1546 47.2222H27.9072L26.9794 47.67L26.0515 48.1177H24.1959L23.732 47.67L22.8041 46.7745H19.5567L19.3247 47.2222L19.0928 47.67L18.6289 47.8938L18.1649 48.1177C18.1649 48.1177 17.6422 48.5654 17.2371 48.5654C16.832 48.5654 16.3093 48.1177 16.3093 48.1177L15.3814 47.67L14.9175 47.2222L14.4536 46.7745L2.39175 47.2222V40.9538V40.506H1V38.2673H1.46392V12.7459Z" fill="#FFBB02" stroke="#6D5C55" stroke-width="2"/>
<path d="M31.32 33L32.76 22.82H30.92L31.16 21.18H37.16L36.92 22.82H35.08L33.64 33H31.32ZM39.7067 33.24C39.0401 33.24 38.4667 33.16 37.9867 33C37.5067 32.8533 37.1601 32.54 36.9467 32.06C36.7334 31.5667 36.6934 30.84 36.8267 29.88L37.7067 23.68C37.8134 22.9733 38.0334 22.4267 38.3667 22.04C38.7001 21.6533 39.1334 21.3867 39.6667 21.24C40.2001 21.08 40.7934 21 41.4467 21C42.1134 21 42.6867 21.08 43.1667 21.24C43.6601 21.4 44.0201 21.6733 44.2467 22.06C44.4867 22.4467 44.5601 22.9867 44.4667 23.68L43.5867 29.86C43.4534 30.8333 43.2067 31.5667 42.8467 32.06C42.4867 32.54 42.0401 32.8533 41.5067 33C40.9867 33.16 40.3867 33.24 39.7067 33.24ZM39.9067 31.88C40.0934 31.88 40.2734 31.8533 40.4467 31.8C40.6201 31.7333 40.7667 31.62 40.8867 31.46C41.0201 31.2867 41.1067 31.0467 41.1467 30.74L42.1467 23.58C42.2001 23.26 42.1801 23.02 42.0867 22.86C42.0067 22.6867 41.8867 22.5733 41.7267 22.52C41.5801 22.4667 41.4134 22.44 41.2267 22.44C41.0401 22.44 40.8601 22.4667 40.6867 22.52C40.5134 22.5733 40.3667 22.6867 40.2467 22.86C40.1267 23.02 40.0401 23.26 39.9867 23.58L38.9867 30.74C38.9467 31.0467 38.9667 31.2867 39.0467 31.46C39.1267 31.62 39.2401 31.7333 39.3867 31.8C39.5467 31.8533 39.7201 31.88 39.9067 31.88ZM44.6908 33L46.3508 21.18H50.5508C51.2974 21.18 51.8441 21.36 52.1908 21.72C52.5374 22.0667 52.6641 22.5533 52.5708 23.18L52.3908 24.52C52.3374 24.8667 52.2374 25.1867 52.0908 25.48C51.9574 25.76 51.7774 26 51.5508 26.2C51.3641 26.3467 51.1508 26.46 50.9108 26.54C50.6841 26.62 50.4708 26.6667 50.2708 26.68L50.2508 26.7C50.4774 26.7 50.6908 26.7267 50.8908 26.78C51.1041 26.8333 51.2974 26.94 51.4708 27.1C51.6574 27.2733 51.7974 27.5133 51.8908 27.82C51.9841 28.1133 51.9974 28.48 51.9308 28.92L51.7308 30.54C51.6374 31.18 51.4508 31.68 51.1708 32.04C50.8908 32.4 50.5374 32.6533 50.1108 32.8C49.6974 32.9333 49.2108 33 48.6508 33H44.6908ZM47.1908 31.78H48.2708C48.4708 31.78 48.6374 31.7467 48.7708 31.68C48.9174 31.6 49.0441 31.46 49.1508 31.26C49.2574 31.06 49.3374 30.7667 49.3908 30.38L49.5908 28.98C49.6708 28.4467 49.6241 28.1 49.4508 27.94C49.2908 27.7667 49.0641 27.68 48.7708 27.68H47.7708L47.1908 31.78ZM47.9708 26.22H48.9308C49.2374 26.22 49.4908 26.1133 49.6908 25.9C49.9041 25.6867 50.0441 25.3133 50.1108 24.78L50.2908 23.6C50.3574 23.1867 50.3241 22.8933 50.1908 22.72C50.0574 22.5333 49.8708 22.44 49.6308 22.44H48.4908L47.9708 26.22ZM60.9161 20.5H62.1561L61.3961 24.68H59.4761L60.9161 20.5ZM58.0961 20.5H59.3361L58.5961 24.68H56.6561L58.0961 20.5ZM62.9525 33L64.6125 21.18H68.8125C69.5592 21.18 70.1058 21.36 70.4525 21.72C70.7992 22.0667 70.9258 22.5533 70.8325 23.18L70.6525 24.52C70.5992 24.8667 70.4992 25.1867 70.3525 25.48C70.2192 25.76 70.0392 26 69.8125 26.2C69.6258 26.3467 69.4125 26.46 69.1725 26.54C68.9458 26.62 68.7325 26.6667 68.5325 26.68L68.5125 26.7C68.7392 26.7 68.9525 26.7267 69.1525 26.78C69.3658 26.8333 69.5592 26.94 69.7325 27.1C69.9192 27.2733 70.0592 27.5133 70.1525 27.82C70.2458 28.1133 70.2592 28.48 70.1925 28.92L69.9925 30.54C69.8992 31.18 69.7125 31.68 69.4325 32.04C69.1525 32.4 68.7992 32.6533 68.3725 32.8C67.9592 32.9333 67.4725 33 66.9125 33H62.9525ZM65.4525 31.78H66.5325C66.7325 31.78 66.8992 31.7467 67.0325 31.68C67.1792 31.6 67.3058 31.46 67.4125 31.26C67.5192 31.06 67.5992 30.7667 67.6525 30.38L67.8525 28.98C67.9325 28.4467 67.8858 28.1 67.7125 27.94C67.5525 27.7667 67.3258 27.68 67.0325 27.68H66.0325L65.4525 31.78ZM66.2325 26.22H67.1925C67.4992 26.22 67.7525 26.1133 67.9525 25.9C68.1658 25.6867 68.3058 25.3133 68.3725 24.78L68.5525 23.6C68.6192 23.1867 68.5858 22.8933 68.4525 22.72C68.3192 22.5333 68.1325 22.44 67.8925 22.44H66.7525L66.2325 26.22ZM71.0775 33L72.7575 21.18H75.0775L73.3975 33H71.0775ZM74.3209 33L74.5009 31.8C74.7543 31.8 75.0009 31.6533 75.2409 31.36C75.4943 31.0667 75.6676 30.7067 75.7609 30.28L77.7009 21.18H84.0809L82.4009 33H80.0809L81.5009 22.82H79.7409L78.0009 30.88C77.9476 31.12 77.8876 31.3667 77.8209 31.62C77.7543 31.86 77.6476 32.0867 77.5009 32.3C77.3676 32.5 77.1609 32.6667 76.8809 32.8C76.6143 32.92 76.2543 32.9867 75.8009 33H74.3209ZM91.3848 33.24C90.7315 33.24 90.1582 33.16 89.6648 33C89.1848 32.8533 88.8382 32.54 88.6248 32.06C88.4115 31.5667 88.3715 30.8333 88.5048 29.86L88.8048 27.74H87.1648L86.4248 33H84.1048L85.7648 21.18H88.0848L87.4248 26.02H89.0448L89.3648 23.68C89.4715 22.9867 89.6915 22.4467 90.0248 22.06C90.3582 21.66 90.7915 21.3867 91.3248 21.24C91.8582 21.08 92.4582 21 93.1248 21C93.7915 21 94.3515 21.08 94.8048 21.24C95.2715 21.4 95.6115 21.6733 95.8248 22.06C96.0515 22.4467 96.1115 22.9867 96.0048 23.68L95.1448 29.86C95.0115 30.8333 94.7782 31.5667 94.4448 32.06C94.1115 32.54 93.6848 32.8533 93.1648 33C92.6582 33.16 92.0648 33.24 91.3848 33.24ZM91.5848 31.88C91.7715 31.88 91.9382 31.8533 92.0848 31.8C92.2315 31.7333 92.3582 31.62 92.4648 31.46C92.5715 31.3 92.6448 31.0667 92.6848 30.76L93.7048 23.56C93.7448 23.24 93.7315 23 93.6648 22.84C93.6115 22.68 93.5182 22.5733 93.3848 22.52C93.2515 22.4667 93.0915 22.44 92.9048 22.44C92.7315 22.44 92.5648 22.4667 92.4048 22.52C92.2582 22.5733 92.1315 22.68 92.0248 22.84C91.9315 23 91.8582 23.24 91.8048 23.56L90.8048 30.76C90.7648 31.0667 90.7715 31.3 90.8248 31.46C90.8782 31.62 90.9715 31.7333 91.1048 31.8C91.2382 31.8533 91.3982 31.88 91.5848 31.88ZM96.2533 33L97.9333 21.18H102.133C102.92 21.18 103.487 21.36 103.833 21.72C104.193 22.0667 104.327 22.5533 104.233 23.18L103.953 25.22C103.887 25.7533 103.747 26.2533 103.533 26.72C103.333 27.1733 103.04 27.54 102.653 27.82C102.267 28.1 101.753 28.24 101.113 28.24H99.3533L98.6733 33H96.2533ZM99.5333 26.96H100.433C100.753 26.96 101.013 26.8067 101.213 26.5C101.427 26.1933 101.58 25.6867 101.673 24.98L101.773 24.18C101.867 23.5533 101.867 23.1067 101.773 22.84C101.68 22.5733 101.507 22.44 101.253 22.44H100.173L99.5333 26.96ZM105.885 24.68H104.625L105.385 20.5H107.305L105.885 24.68ZM108.685 24.68H107.445L108.205 20.5H110.125L108.685 24.68Z" fill="#6D5C55"/>
</svg>
