<svg width="191" height="71" viewBox="0 0 191 71" fill="none" xmlns="http://www.w3.org/2000/svg">
<path d="M1.64605 17.3962L83.6942 7.77358L133.44 2L141.838 4.56604C153.898 5.42138 178.792 7.51698 181.893 9.0566C184.995 10.5962 186.631 13.1195 187.062 14.1887V18.0377L189 61.0189L188.354 62.3019L187.708 63.5849L185.77 64.2264H180.601H174.141H168.326H161.22C161.435 64.2264 161.608 64.6113 160.574 66.1509C159.54 67.6906 157.99 69.3585 157.344 70H154.759L152.821 69.3585L151.529 68.0755L149.591 66.1509L148.945 64.2264H147.653V65.5094L116.643 64.2264V66.1509V67.434L113.412 66.7924C113.412 67.2201 113.283 68.0755 112.766 68.0755C112.249 68.0755 111.69 68.9308 111.474 69.3585C111.69 69.5723 111.733 70 110.182 70C108.632 70 106.952 69.5723 106.306 69.3585L105.014 68.0755L103.722 66.7924H50.0997L48.8076 67.434L47.5155 68.0755H46.2234H44.9313L43.6392 67.434L42.9931 66.7924H38.4708L37.1787 67.434L35.8866 68.0755H33.3024L32.6564 67.434L31.3643 66.1509H26.8419L26.5189 66.7924L26.1959 67.434L25.5498 67.7547L24.9038 68.0755C24.9038 68.0755 24.1758 68.717 23.6117 68.717C23.0475 68.717 22.3196 68.0755 22.3196 68.0755L21.0275 67.434L20.3814 66.7924L19.7354 66.1509L2.93814 66.7924V57.8113V57.1698H1V53.9623H1.64605V17.3962Z" fill="#FFBB02" stroke="#6D5C55" stroke-width="2"/>
<path d="M34.376 47L36.968 28.676H33.656L34.088 25.724H44.888L44.456 28.676H41.144L38.552 47H34.376ZM49.4721 47.432C48.2721 47.432 47.2401 47.288 46.3761 47C45.5121 46.736 44.8881 46.172 44.5041 45.308C44.1201 44.42 44.0481 43.112 44.2881 41.384L45.8721 30.224C46.0641 28.952 46.4601 27.968 47.0601 27.272C47.6601 26.576 48.4401 26.096 49.4001 25.832C50.3601 25.544 51.4281 25.4 52.6041 25.4C53.8041 25.4 54.8361 25.544 55.7001 25.832C56.5881 26.12 57.2361 26.612 57.6441 27.308C58.0761 28.004 58.2081 28.976 58.0401 30.224L56.4561 41.348C56.2161 43.1 55.7721 44.42 55.1241 45.308C54.4761 46.172 53.6721 46.736 52.7121 47C51.7761 47.288 50.6961 47.432 49.4721 47.432ZM49.8321 44.984C50.1681 44.984 50.4921 44.936 50.8041 44.84C51.1161 44.72 51.3801 44.516 51.5961 44.228C51.8361 43.916 51.9921 43.484 52.0641 42.932L53.8641 30.044C53.9601 29.468 53.9241 29.036 53.7561 28.748C53.6121 28.436 53.3961 28.232 53.1081 28.136C52.8441 28.04 52.5441 27.992 52.2081 27.992C51.8721 27.992 51.5481 28.04 51.2361 28.136C50.9241 28.232 50.6601 28.436 50.4441 28.748C50.2281 29.036 50.0721 29.468 49.9761 30.044L48.1761 42.932C48.1041 43.484 48.1401 43.916 48.2841 44.228C48.4281 44.516 48.6321 44.72 48.8961 44.84C49.1841 44.936 49.4961 44.984 49.8321 44.984ZM58.4434 47L61.4314 25.724H68.9914C70.3354 25.724 71.3194 26.048 71.9434 26.696C72.5674 27.32 72.7954 28.196 72.6274 29.324L72.3034 31.736C72.2074 32.36 72.0274 32.936 71.7634 33.464C71.5234 33.968 71.1994 34.4 70.7914 34.76C70.4554 35.024 70.0714 35.228 69.6394 35.372C69.2314 35.516 68.8474 35.6 68.4874 35.624L68.4514 35.66C68.8594 35.66 69.2434 35.708 69.6034 35.804C69.9874 35.9 70.3354 36.092 70.6474 36.38C70.9834 36.692 71.2354 37.124 71.4034 37.676C71.5714 38.204 71.5954 38.864 71.4754 39.656L71.1154 42.572C70.9474 43.724 70.6114 44.624 70.1074 45.272C69.6034 45.92 68.9674 46.376 68.1994 46.64C67.4554 46.88 66.5794 47 65.5714 47H58.4434ZM62.9434 44.804H64.8874C65.2474 44.804 65.5474 44.744 65.7874 44.624C66.0514 44.48 66.2794 44.228 66.4714 43.868C66.6634 43.508 66.8074 42.98 66.9034 42.284L67.2634 39.764C67.4074 38.804 67.3234 38.18 67.0114 37.892C66.7234 37.58 66.3154 37.424 65.7874 37.424H63.9874L62.9434 44.804ZM64.3474 34.796H66.0754C66.6274 34.796 67.0834 34.604 67.4434 34.22C67.8274 33.836 68.0794 33.164 68.1994 32.204L68.5234 30.08C68.6434 29.336 68.5834 28.808 68.3434 28.496C68.1034 28.16 67.7674 27.992 67.3354 27.992H65.2834L64.3474 34.796ZM87.649 24.5H89.881L88.513 32.024H85.057L87.649 24.5ZM82.573 24.5H84.805L83.473 32.024H79.981L82.573 24.5ZM91.3145 47L94.3025 25.724H101.863C103.207 25.724 104.191 26.048 104.815 26.696C105.439 27.32 105.667 28.196 105.499 29.324L105.175 31.736C105.079 32.36 104.899 32.936 104.635 33.464C104.395 33.968 104.071 34.4 103.663 34.76C103.327 35.024 102.943 35.228 102.511 35.372C102.103 35.516 101.719 35.6 101.359 35.624L101.323 35.66C101.731 35.66 102.115 35.708 102.475 35.804C102.859 35.9 103.207 36.092 103.519 36.38C103.855 36.692 104.107 37.124 104.275 37.676C104.443 38.204 104.467 38.864 104.347 39.656L103.987 42.572C103.819 43.724 103.483 44.624 102.979 45.272C102.475 45.92 101.839 46.376 101.071 46.64C100.327 46.88 99.4505 47 98.4425 47H91.3145ZM95.8145 44.804H97.7585C98.1185 44.804 98.4185 44.744 98.6585 44.624C98.9225 44.48 99.1505 44.228 99.3425 43.868C99.5345 43.508 99.6785 42.98 99.7745 42.284L100.135 39.764C100.279 38.804 100.195 38.18 99.8825 37.892C99.5945 37.58 99.1865 37.424 98.6585 37.424H96.8585L95.8145 44.804ZM97.2185 34.796H98.9465C99.4985 34.796 99.9545 34.604 100.314 34.22C100.699 33.836 100.951 33.164 101.071 32.204L101.395 30.08C101.515 29.336 101.455 28.808 101.215 28.496C100.975 28.16 100.639 27.992 100.207 27.992H98.1545L97.2185 34.796ZM105.94 47L108.964 25.724H113.14L110.116 47H105.94ZM111.778 47L112.102 44.84C112.558 44.84 113.002 44.576 113.434 44.048C113.89 43.52 114.202 42.872 114.37 42.104L117.862 25.724H129.346L126.322 47H122.146L124.702 28.676H121.534L118.402 43.184C118.306 43.616 118.198 44.06 118.078 44.516C117.958 44.948 117.766 45.356 117.502 45.74C117.262 46.1 116.89 46.4 116.386 46.64C115.906 46.856 115.258 46.976 114.442 47H111.778ZM142.493 47.432C141.317 47.432 140.285 47.288 139.397 47C138.533 46.736 137.909 46.172 137.525 45.308C137.141 44.42 137.069 43.1 137.309 41.348L137.849 37.532H134.897L133.565 47H129.389L132.377 25.724H136.553L135.365 34.436H138.281L138.857 30.224C139.049 28.976 139.445 28.004 140.045 27.308C140.645 26.588 141.425 26.096 142.385 25.832C143.345 25.544 144.425 25.4 145.625 25.4C146.825 25.4 147.833 25.544 148.649 25.832C149.489 26.12 150.101 26.612 150.485 27.308C150.893 28.004 151.001 28.976 150.809 30.224L149.261 41.348C149.021 43.1 148.601 44.42 148.001 45.308C147.401 46.172 146.633 46.736 145.697 47C144.785 47.288 143.717 47.432 142.493 47.432ZM142.853 44.984C143.189 44.984 143.489 44.936 143.753 44.84C144.017 44.72 144.245 44.516 144.437 44.228C144.629 43.94 144.761 43.52 144.833 42.968L146.669 30.008C146.741 29.432 146.717 29 146.597 28.712C146.501 28.424 146.333 28.232 146.093 28.136C145.853 28.04 145.565 27.992 145.229 27.992C144.917 27.992 144.617 28.04 144.329 28.136C144.065 28.232 143.837 28.424 143.645 28.712C143.477 29 143.345 29.432 143.249 30.008L141.449 42.968C141.377 43.52 141.389 43.94 141.485 44.228C141.581 44.516 141.749 44.72 141.989 44.84C142.229 44.936 142.517 44.984 142.853 44.984ZM151.256 47L154.28 25.724H161.84C163.256 25.724 164.276 26.048 164.9 26.696C165.548 27.32 165.788 28.196 165.62 29.324L165.116 32.996C164.996 33.956 164.744 34.856 164.36 35.696C164 36.512 163.472 37.172 162.776 37.676C162.08 38.18 161.156 38.432 160.004 38.432H156.836L155.612 47H151.256ZM157.16 36.128H158.78C159.356 36.128 159.824 35.852 160.184 35.3C160.568 34.748 160.844 33.836 161.012 32.564L161.192 31.124C161.36 29.996 161.36 29.192 161.192 28.712C161.024 28.232 160.712 27.992 160.256 27.992H158.312L157.16 36.128ZM168.593 32.024H166.325L167.693 24.5H171.149L168.593 32.024ZM173.633 32.024H171.401L172.769 24.5H176.225L173.633 32.024Z" fill="#6D5C55"/>
</svg>
